<svg xmlns="http://www.w3.org/2000/svg" viewBox="0 0 512 512"><path d="M38.29,44.84C20.79,49.84,5.8,65.83,1.5,84,.3,89.32,0,99.52,0,141.1v50.78H511.9l-.3-53.78-.29-53.68-2.4-6c-6.2-15.59-17-26.59-32.29-32.79l-5.3-2.2-213.41-.2C56.08,43,44.18,43.14,38.29,44.84Z"/><path d="M0,232.16C0,253.35.9,259,6,269.35c5.9,12,16.59,21.39,30.38,26.39l7.1,2.6,207.92.29c141.64.2,210.12-.1,214.91-.8,8.6-1.3,21.19-7.19,27.59-12.79a58,58,0,0,0,14.7-21.79c2.4-6.5,2.6-8.2,3-28.69l.4-21.69H0Zm338,5.6a10.59,10.59,0,0,1-2.1,16.4c-2.6,1.6-14.1,1.7-144,1.7s-141.34-.1-143.94-1.7a10.59,10.59,0,0,1-2.1-16.4l2.9-2.9H335.07Zm64,0a10.59,10.59,0,0,1-2.1,16.4c-2.2,1.4-5.5,1.7-15.89,1.7-14.3,0-17.39-.8-19.69-5.1-2.4-4.7-1.81-9.7,1.5-13l2.9-2.9H399Zm64,0a10.59,10.59,0,0,1-2.1,16.4c-2.19,1.4-5.49,1.7-15.89,1.7-14.29,0-17.39-.8-19.69-5.1-2.4-4.7-1.8-9.7,1.5-13l2.9-2.9H463Z"/><path d="M79.37,321.73c-4.1,2.5-11,13-13.09,20-2.3,7.89-2.1,20.69.6,30.58,1.2,4.4,5.1,15.7,8.59,25.1,7.7,20.39,9.5,27,9.5,34.18,0,7.4-1.7,12.5-5.7,17.2s-5.3,8.39-4.09,12.69,5.19,7.3,10,7.3c5.4,0,11.7-6,16.29-15.4,8-16.39,6.7-30.59-5.59-62.47-12.19-31.59-12.89-41.69-3.5-52.78,3.7-4.4,4.2-8.9,1.6-13.09C90.67,319.73,84.87,318.43,79.37,321.73Z"/><path d="M164.34,321.73c-4.1,2.5-11,13-13.1,20-2.3,7.69-2,20.49.6,30.58,1.21,4.4,5,15.7,8.6,25.1,7.69,20.29,9.5,27,9.5,34.18,0,7.4-1.7,12.5-5.7,17.2s-5.3,8.39-4.1,12.69,5.2,7.3,10,7.3c5.39,0,11.69-6,16.29-15.4,8-16.49,6.7-31-5.9-63.37-11.89-30.29-12.49-40.88-3.2-51.88,3.7-4.4,4.21-8.9,1.6-13.09C175.63,319.73,169.83,318.43,164.34,321.73Z"/><path d="M249.3,321.73c-3.9,2.4-10.69,12.5-13,19.3-4.1,12-1.7,28.58,7.2,51.58,13.49,34.48,14.69,45.68,5.7,56.08-4.5,5.29-5.6,9.29-3.9,13.59a10,10,0,0,0,9.8,6.5c8.29,0,18.69-14.9,20.79-29.49,1.7-12.49-.7-23.59-10.5-49.38-7.89-20.59-9.49-26.59-9.49-34.78,0-6.8,1.79-11.5,6.5-17.1,3.59-4.3,4.09-8.9,1.49-13C260.6,319.73,254.8,318.43,249.3,321.73Z"/><path d="M387.65,322.73l-3.3,2.9-.5,25.09-.5,25-19.9-11.49c-11-6.3-21.19-11.8-22.79-12.1a10.83,10.83,0,0,0-10.29,4.3c-1.91,3-1.91,9.3,0,12.1.79,1.09,9.89,6.89,20.19,12.89s19.59,11.3,20.59,12c1.6,1-.7,2.59-18.5,12.89-11.19,6.4-21.09,12.6-22,13.79-1.09,1.3-1.79,4-1.79,6.5,0,3.5.6,4.9,2.9,7.3,5.29,5.2,7.89,4.5,31.38-9l20.7-12v23.89c0,25.79.4,28.09,5.1,30.59s9.69,1.8,13-1.5l2.9-2.9V438.39c0-14.2.4-24.59.9-24.59s9.89,5.2,20.79,11.49c22.39,12.9,24.89,13.6,30.29,8.7,4-3.5,4.79-8.5,2.2-12.7-1.4-2.2-7.9-6.49-22.59-15-17.3-9.9-20.39-12-18.89-12.89,16.39-9.1,38.28-22.2,40.08-24,6.5-6.4,1.3-17.6-8.2-17.6-1.2,0-11.69,5.4-23.19,12l-20.89,12-.5-24.79c-.3-13.59-.9-25.49-1.41-26.49-1.09-2.4-5.79-4.7-9.49-4.7C392,319.83,389.75,320.93,387.65,322.73Z"/></svg>