<svg xmlns="http://www.w3.org/2000/svg" viewBox="0 0 512 512"><path d="M259.9,109.84c-1.31-1.61-2.63-3.09-3.9-4.42-1.27,1.33-2.59,2.81-3.9,4.42C247,116.06,241,125.63,241,135.9a15,15,0,1,0,30,0C271,125.63,265,116.06,259.9,109.84Z"/><path d="M80.68,0V336.93H431.32V0ZM247.22,73.12,256,66.79l8.78,6.33C266.26,74.19,301,99.7,301,135.9a45,45,0,0,1-90,0C211,99.7,245.74,74.19,247.22,73.12Zm62.19,233.77H202.59v-30H309.41Z"/><polygon points="80.68 366.94 80.68 431.03 158.87 471.95 187.59 471.95 187.59 512 217.59 512 217.59 471.95 294.4 471.95 294.4 512 324.4 512 324.4 471.95 353.13 471.95 431.32 431.03 431.32 366.94 80.68 366.94"/></svg>