<svg xmlns="http://www.w3.org/2000/svg" viewBox="0 0 512 512"><path d="M461.71,27.43H440.9a18.22,18.22,0,0,0,2.53-9.14A18.47,18.47,0,0,0,425.14,0H306.29a18.18,18.18,0,0,0-15.76,27.43H221.46A18.13,18.13,0,0,0,224,18.28,18.47,18.47,0,0,0,205.71,0H86.86A18.18,18.18,0,0,0,71.1,27.43H50.29A27.45,27.45,0,0,0,22.86,54.86v64H489.14v-64A27.46,27.46,0,0,0,461.71,27.43Zm-352,67.43A18.29,18.29,0,1,1,128,76.57,18.28,18.28,0,0,1,109.71,94.86Zm68.58,0a18.29,18.29,0,1,1,18.28-18.29A18.29,18.29,0,0,1,178.29,94.86Zm77.71,0a18.29,18.29,0,1,1,18.29-18.29A18.29,18.29,0,0,1,256,94.86Zm73.14,0a18.29,18.29,0,1,1,18.29-18.29A18.28,18.28,0,0,1,329.14,94.86Zm73.15,0a18.29,18.29,0,1,1,18.28-18.29A18.29,18.29,0,0,1,402.29,94.86Z"/><path d="M22.86,484.57A27.46,27.46,0,0,0,50.29,512H461.71a27.46,27.46,0,0,0,27.43-27.43V137.14H22.86ZM96,164.57H406.86a9.15,9.15,0,0,1,0,18.29H96a9.15,9.15,0,0,1,0-18.29ZM77.71,237.71a27.46,27.46,0,0,1,27.43-27.42H406.86a27.46,27.46,0,0,1,27.43,27.42v192a27.46,27.46,0,0,1-27.43,27.43H105.14a27.46,27.46,0,0,1-27.43-27.43Z"/><polygon points="193.96 228.57 96 297.03 96 328.62 239.16 228.57 193.96 228.57"/><polygon points="406.86 438.86 416 438.86 416 429.71 416 237.71 416 228.57 406.86 228.57 279.83 228.57 96 357.05 96 429.71 96 438.86 105.14 438.86 406.86 438.86"/></svg>