<svg xmlns="http://www.w3.org/2000/svg" viewBox="0 0 512 512"><path d="M294.7,256.28a39,39,0,1,1-39-39,39,39,0,0,1,39,39"/><path d="M389.54,130.62a183.68,183.68,0,0,0-94.65-53.8,5.51,5.51,0,0,1,.8-.42c28.77-22.38-3.2-19.18-3.2-19.18-7.92.44-20.09,3.45-30.94,15.5-1.95-.07-3.9-.16-5.86-.16a182.61,182.61,0,0,0-99.21,29.22,5.76,5.76,0,0,1,.3-1C161.29,64.65,141,89.5,141,89.5c-5.3,5.92-11.79,16.69-10.91,32.94a183.55,183.55,0,0,0-53.81,94.65,5,5,0,0,1-.42-.8c-22.38-28.77-19.18,3.19-19.18,3.19.43,7.92,3.45,20.09,15.49,30.94-.06,2-.14,3.89-.14,5.85a182.63,182.63,0,0,0,29.21,99.22,5.36,5.36,0,0,1-1-.3C64.06,350.67,88.92,371,88.92,371c5.93,5.29,16.69,11.78,32.94,10.91a183.65,183.65,0,0,0,94.65,53.81,5,5,0,0,1-.8.42c-28.77,22.37,3.19,19.19,3.19,19.19,7.92-.45,20.09-3.46,30.94-15.5,1.95.06,3.89.14,5.86.14a182.59,182.59,0,0,0,99.23-29.22,5.33,5.33,0,0,1-.3,1c-4.52,36.17,15.82,11.3,15.82,11.3,5.3-5.92,11.79-16.69,10.91-32.94a183.59,183.59,0,0,0,53.81-94.64,5.2,5.2,0,0,1,.42.79c22.38,28.78,19.18-3.19,19.18-3.19-.44-7.92-3.46-20.09-15.5-30.94.06-1.95.15-3.89.15-5.86a182.61,182.61,0,0,0-29.22-99.22,5.72,5.72,0,0,1,1,.3c36.17,4.51,11.31-15.82,11.31-15.82-5.92-5.29-16.69-11.78-32.94-10.91Zm-98.4,66a69.26,69.26,0,0,0-20.47-8.09c0-14.08.52-26.35,1.33-37.13a105.37,105.37,0,0,1,45.12,18.41,370.46,370.46,0,0,0-26,26.81Zm25,59.65a60.42,60.42,0,1,1-60.42-60.42A60.43,60.43,0,0,1,316.12,256.28ZM238.57,189a68.9,68.9,0,0,0-20.19,8.77c-9.92-10-18.23-19-25.27-27.16a105.63,105.63,0,0,1,44.88-19,369.58,369.58,0,0,0,.58,37.38Zm-42.52,31.81a68.75,68.75,0,0,0-8.1,20.47c-14.08,0-26.34-.52-37.13-1.33a105.47,105.47,0,0,1,18.41-45.13,362.6,362.6,0,0,0,26.82,26Zm-7.6,52.57a68.82,68.82,0,0,0,8.76,20.18c-10,9.92-19,18.24-27.16,25.28a105.62,105.62,0,0,1-19-44.88,369.66,369.66,0,0,0,37.38-.58Zm31.81,42.52A68.67,68.67,0,0,0,240.72,324c0,14.08-.52,26.35-1.33,37.14a105.72,105.72,0,0,1-45.13-18.41,366.64,366.64,0,0,0,26-26.82Zm52.56,7.6A68.88,68.88,0,0,0,293,314.77c9.92,10,18.23,19,25.28,27.16a105.53,105.53,0,0,1-44.89,19,369.62,369.62,0,0,0-.58-37.38Zm42.53-31.81a69.26,69.26,0,0,0,8.09-20.47c14.08,0,26.35.52,37.14,1.33a105.61,105.61,0,0,1-18.41,45.13,368.68,368.68,0,0,0-26.82-26Zm7.59-52.55A68.76,68.76,0,0,0,314.18,219c10-9.92,19-18.24,27.16-25.28a105.44,105.44,0,0,1,19,44.88,369.66,369.66,0,0,0-37.38.58Zm.47-75a113.8,113.8,0,0,0-50.69-21c1-9.81,2.22-18.23,3.64-25.39A139.47,139.47,0,0,1,344.43,148a203.39,203.39,0,0,0-21,16.15Zm-85-21a113.73,113.73,0,0,0-50.67,21.11c-6.25-7.62-11.32-14.46-15.38-20.53a139.3,139.3,0,0,1,69.5-26.86,202.44,202.44,0,0,0-3.45,26.28Zm-74.86,45.37a113.79,113.79,0,0,0-21,50.7c-9.82-1-18.23-2.22-25.4-3.64a139.63,139.63,0,0,1,30.25-68.07,203.35,203.35,0,0,0,16.15,21Zm-21,85a113.8,113.8,0,0,0,21.1,50.66c-7.62,6.26-14.45,11.33-20.53,15.38a139.32,139.32,0,0,1-26.86-69.49,202.38,202.38,0,0,0,26.29,3.45ZM188,348.4a113.77,113.77,0,0,0,50.7,21c-1,9.82-2.22,18.24-3.64,25.41A139.54,139.54,0,0,1,167,364.55a204.77,204.77,0,0,0,21-16.15Zm85,21a113.86,113.86,0,0,0,50.66-21.11c6.26,7.62,11.33,14.45,15.38,20.53a139.27,139.27,0,0,1-69.49,26.86A203.89,203.89,0,0,0,273,369.36ZM347.81,324a113.79,113.79,0,0,0,21-50.7c9.82,1,18.23,2.21,25.4,3.64A139.57,139.57,0,0,1,364,345a205,205,0,0,0-16.16-21Zm21-85a113.7,113.7,0,0,0-21.11-50.66c7.63-6.27,14.46-11.33,20.54-15.39a139.31,139.31,0,0,1,26.85,69.49A204.07,204.07,0,0,0,368.78,239ZM352,143.29a147.88,147.88,0,0,0-73.74-33.84C281.38,96.88,285,89,288.17,84.14a174.91,174.91,0,0,1,91,48c-8,1.8-17,5.29-27.2,11.2Zm-108.07-35a147.56,147.56,0,0,0-76.05,28.35c-6.67-11.12-9.68-19.27-10.91-24.95a174.2,174.2,0,0,1,98.3-30.57c-4.38,6.92-8.32,15.79-11.34,27.17ZM131.52,132.82c1.79,8,5.3,17,11.2,27.19a147.88,147.88,0,0,0-33.85,73.75c-12.57-3.15-20.44-6.79-25.31-9.94a174.81,174.81,0,0,1,48-91ZM107.67,268.08A147.68,147.68,0,0,0,136,344.13c-11.12,6.67-19.27,9.67-25,10.9A174.23,174.23,0,0,1,80.5,256.74c6.92,4.39,15.8,8.32,27.17,11.34Zm51.76,101.19a148,148,0,0,0,73.74,33.85c-3.14,12.56-6.78,20.43-9.94,25.31a174.89,174.89,0,0,1-91-48C140.22,378.67,149.27,375.17,159.43,369.27ZM267.5,404.32A147.69,147.69,0,0,0,343.56,376c6.66,11.12,9.67,19.27,10.9,25a174.26,174.26,0,0,1-98.31,30.57c4.4-6.93,8.33-15.81,11.35-27.17Zm112.39-24.58c-1.8-8-5.29-17-11.2-27.19a148,148,0,0,0,33.85-73.75c12.56,3.15,20.43,6.79,25.31,9.94A174.88,174.88,0,0,1,379.89,379.74Zm23.84-135.27a147.57,147.57,0,0,0-28.35-76.05c11.12-6.67,19.27-9.67,24.95-10.91a174.2,174.2,0,0,1,30.58,98.3c-6.93-4.39-15.8-8.32-27.18-11.34Z"/><path d="M437.39,14.64H319.66s0-.09,0-.13a14.24,14.24,0,0,0-28.48,0s0,.09,0,.13h-71s0-.09,0-.13a14.24,14.24,0,0,0-28.47,0s0,.09,0,.13H74a60,60,0,0,0-60,60V438a60,60,0,0,0,60,60H191.72a14.24,14.24,0,1,0,28.47,0h71a14.24,14.24,0,0,0,28.48,0H437.41a60,60,0,0,0,60-60V74.64a60,60,0,0,0-60-60Zm-132-8a7.87,7.87,0,1,1-7.87,7.87A7.87,7.87,0,0,1,305.43,6.64ZM206,6.64a7.87,7.87,0,1,1-7.87,7.87A7.87,7.87,0,0,1,206,6.64Zm0,499.27a7.88,7.88,0,1,1,7.87-7.88A7.87,7.87,0,0,1,206,505.91Zm99.48,0A7.88,7.88,0,1,1,313.3,498,7.87,7.87,0,0,1,305.43,505.91Zm-49.74-37C138.27,469,43.07,373.76,43.07,256.33S138.27,43.72,255.69,43.72,468.3,138.91,468.3,256.33,373.12,469,255.69,469Z"/></svg>
