<svg xmlns="http://www.w3.org/2000/svg" viewBox="0 0 512 512"><path d="M177.38,434.56H334.61c.26-4.53.59-9.84,1-15.64H176.4C176.8,424.72,177.13,430,177.38,434.56Z"/><path d="M274.59,398.26V299.32a12,12,0,0,1,2-6.61l18.15-27.63V214a13,13,0,0,0-8.79-12.31l-2.94-.9-19.77,14.8a12.06,12.06,0,0,1-14.44,0L229,200.74l-2.95.9A13,13,0,0,0,217.27,214v51.13l18.16,27.63a12,12,0,0,1,2,6.61v98.95h37.18Z"/><path d="M178.65,455.21C184,512,228.93,512,256,512s72,0,77.34-56.79Z"/><path d="M256,118.32a13.34,13.34,0,1,0,13.34,13.34A13.35,13.35,0,0,0,256,118.32Z"/><path d="M256,0C159.68,0,81.32,78.36,81.32,174.68c0,50.67,27,84.29,53.16,116.82,8.19,10.2,16.67,20.74,24.3,31.78,8.45,12.24,13.22,45.55,15.95,75h38.58V302.92L195.16,275.3a12.06,12.06,0,0,1-2-6.62V214a37.07,37.07,0,0,1,25.38-35.21l9.23-2.83a12,12,0,0,1,10.76,1.87L256,190.85l17.45-13.07a12,12,0,0,1,10.76-1.87l9.23,2.83A37.07,37.07,0,0,1,318.82,214v54.73a12,12,0,0,1-2,6.62l-18.15,27.62v95.34h38.58c2.73-29.43,7.5-62.74,16-75,7.63-11,16.11-21.58,24.3-31.78,26.14-32.53,53.16-66.15,53.16-116.82C430.68,78.36,352.32,0,256,0Zm0,169.09a37.43,37.43,0,1,1,37.43-37.43A37.47,37.47,0,0,1,256,169.09Z"/></svg>