<svg xmlns="http://www.w3.org/2000/svg" viewBox="0 0 512 512"><path d="M0,512H512V0H0Zm234.06-60.3V412.44h29.25v42.67H234.06ZM263.31,76.25v37.53H234.06V71.11h29.25Zm-43.88,2.37V128h58.51V77.54c94.91,12.2,168.23,91,168.23,186.61S372.85,438.56,277.94,450.76V398.22H219.43v51.46C128.09,434.46,58.51,357.29,58.51,264.15S128.09,93.84,219.43,78.62Z"/><ellipse cx="146.37" cy="269.26" rx="29.23" ry="28.42"/><ellipse cx="365.8" cy="269.26" rx="29.23" ry="28.42"/><path d="M253.25,290.7c14.64,0,26.55-11.57,26.55-25.81s-11.91-25.81-26.55-25.81-26.55,11.57-26.55,25.81S238.62,290.7,253.25,290.7Zm0-37.4a11.59,11.59,0,1,1-11.92,11.59A11.77,11.77,0,0,1,253.25,253.3Z"/></svg>