<svg xmlns="http://www.w3.org/2000/svg" viewBox="0 0 512 512"><path d="M106.67,42.67a64.07,64.07,0,0,0-64,64V405.33a64.07,64.07,0,0,0,64,64H405.33a64.07,64.07,0,0,0,64-64V106.67a64.07,64.07,0,0,0-64-64Zm405.33,64V405.33A106.67,106.67,0,0,1,405.33,512H106.67A106.67,106.67,0,0,1,0,405.33V106.67A106.67,106.67,0,0,1,106.67,0H405.33A106.67,106.67,0,0,1,512,106.67Z"/><circle cx="107.54" cy="106.67" r="21.33"/><circle cx="405.33" cy="106.67" r="21.33"/><circle cx="405.33" cy="405.33" r="21.33"/><circle cx="107.54" cy="405.33" r="21.33"/></svg>