<svg xmlns="http://www.w3.org/2000/svg" viewBox="0 0 512 512"><circle cx="81.1" cy="74.91" r="12.57"/><circle cx="121.43" cy="74.91" r="12.57"/><circle cx="350.24" cy="74.91" r="12.57"/><circle cx="390.57" cy="74.91" r="12.57"/><circle cx="430.9" cy="74.91" r="12.57"/><path d="M256,417.09A111.07,111.07,0,1,0,144.93,306,111.19,111.19,0,0,0,256,417.09Zm0-199.4A88.33,88.33,0,0,1,344.33,306c0,.65,0,1.29-.05,1.93-3.92,3.27-8.45,6.16-16.21,6.16-9.24,0-13.9-4.09-18.4-8.05s-8.73-7.67-17.37-7.67-12.89,3.72-17.37,7.67-9.17,8.05-18.41,8.05-13.89-4.09-18.4-8.05-8.72-7.67-17.36-7.67-12.89,3.72-17.37,7.66-9.17,8.06-18.41,8.06c-8.48,0-13.1-3.45-17.29-7.08,0-.34,0-.67,0-1A88.33,88.33,0,0,1,256,217.69Z"/><path d="M40.27,512H471.73V100H40.27ZM256,169.63c75.21,0,136.4,61.18,136.4,136.39S331.21,442.42,256,442.42,119.6,381.23,119.6,306,180.79,169.63,256,169.63Z"/><rect x="40.27" width="431.45" height="44.33"/></svg>