<svg xmlns="http://www.w3.org/2000/svg" viewBox="0 0 512 512"><path d="M252.58,0C111.21,1.92-1.86,118.07,0,259.44S118.06,513.86,259.43,512,513.86,393.92,512,252.56,393.94-1.86,252.58,0Zm-.76,411.81-1.41,0c-21.77-.64-37.12-16.68-36.5-38.13.6-21.08,16.33-36.38,37.38-36.38l1.26,0c22.38.66,37.56,16.54,36.93,38.6C288.85,397.06,273.38,411.83,251.82,411.83ZM343.4,230.07c-5.12,7.28-16.38,16.31-30.56,27.36l-15.63,10.79c-8.57,6.66-13.75,12.93-15.69,19.11-1.53,4.85-2.28,6.14-2.42,16l0,2.51H219.43l.18-5c.73-20.75,1.24-32.95,9.84-43,13.49-15.84,43.24-35,44.51-35.81a47,47,0,0,0,10.53-10.78c6.26-8.63,9-15.42,9-22.1a43.12,43.12,0,0,0-8.18-25.47c-5.23-7.36-15.16-11.09-29.52-11.09s-24,4.52-29.82,13.79c-6,9.54-9,19.55-9,29.78v2.54h-61.5l.11-2.66c1.58-37.67,15-64.79,39.95-80.62,15.65-10.08,35.13-15.19,57.86-15.19,29.75,0,54.86,7.23,74.64,21.49,20,14.45,30.2,36.09,30.2,64.31C358.23,201.76,353.24,216.59,343.4,230.07Z"/></svg>